<svg width="96" height="96" viewBox="0 0 96 96" fill="none" xmlns="http://www.w3.org/2000/svg">
<path d="M59.4683 24.7693L63.6885 43.5H56.8028V27.1614C56.8028 26.6228 57.0916 26.1256 57.5593 25.8586L59.4683 24.7693Z" fill="#101010" stroke="#101010"/>
<mask id="path-3-inside-1_402_1250" fill="white">
<path fill-rule="evenodd" clip-rule="evenodd" d="M65.0745 48H67.9913C69.8962 48 70.7226 45.589 69.2181 44.4205L49.2666 28.9237C47.8123 27.7941 45.7747 27.8034 44.3307 28.9461L24.7628 44.4317C23.2762 45.6082 24.1081 48 26.0039 48H29.0255V68C29.0255 70.2091 30.8164 72 33.0255 72H61.0745C63.2836 72 65.0745 70.2091 65.0745 68V48Z"/>
</mask>
<path fill-rule="evenodd" clip-rule="evenodd" d="M65.0745 48H67.9913C69.8962 48 70.7226 45.589 69.2181 44.4205L49.2666 28.9237C47.8123 27.7941 45.7747 27.8034 44.3307 28.9461L24.7628 44.4317C23.2762 45.6082 24.1081 48 26.0039 48H29.0255V68C29.0255 70.2091 30.8164 72 33.0255 72H61.0745C63.2836 72 65.0745 70.2091 65.0745 68V48Z" fill="#101010"/>
<path d="M65.0745 48V47H64.0745V48H65.0745ZM69.2181 44.4205L69.8315 43.6307L69.8315 43.6307L69.2181 44.4205ZM49.2666 28.9237L48.6532 29.7135V29.7135L49.2666 28.9237ZM44.3307 28.9461L44.9512 29.7303V29.7303L44.3307 28.9461ZM24.7628 44.4317L24.1423 43.6475L24.7628 44.4317ZM29.0255 48H30.0255V47H29.0255V48ZM67.9913 47H65.0745V49H67.9913V47ZM68.6047 45.2102C69.3569 45.7945 68.9437 47 67.9913 47V49C70.8487 49 72.0882 45.3836 69.8315 43.6307L68.6047 45.2102ZM48.6532 29.7135L68.6047 45.2102L69.8315 43.6307L49.88 28.134L48.6532 29.7135ZM44.9512 29.7303C46.0342 28.8732 47.5625 28.8663 48.6532 29.7135L49.88 28.134C48.0621 26.722 45.5151 26.7335 43.7101 28.162L44.9512 29.7303ZM25.3834 45.2158L44.9512 29.7303L43.7101 28.162L24.1423 43.6475L25.3834 45.2158ZM26.0039 47C25.056 47 24.6401 45.8041 25.3834 45.2158L24.1423 43.6475C21.9123 45.4123 23.1602 49 26.0039 49V47ZM29.0255 47H26.0039V49H29.0255V47ZM30.0255 68V48H28.0255V68H30.0255ZM33.0255 71C31.3686 71 30.0255 69.6568 30.0255 68H28.0255C28.0255 70.7614 30.2641 73 33.0255 73V71ZM61.0745 71H33.0255V73H61.0745V71ZM64.0745 68C64.0745 69.6568 62.7313 71 61.0745 71V73C63.8359 73 66.0745 70.7614 66.0745 68H64.0745ZM64.0745 48V68H66.0745V48H64.0745Z" fill="#101010" mask="url(#path-3-inside-1_402_1250)"/>
<path d="M65.5773 41.5H58.5664V26C58.5664 25.1716 59.238 24.5 60.0664 24.5H62.4502H64.0773C64.9057 24.5 65.5773 25.1716 65.5773 26V41.5Z" fill="#FF01C4" stroke="#101010"/>
<mask id="path-6-inside-2_402_1250" fill="white">
<path fill-rule="evenodd" clip-rule="evenodd" d="M67.0774 46H69.9942C71.8992 46 72.7255 43.589 71.221 42.4205L51.2695 26.9237C49.8152 25.7941 47.7776 25.8034 46.3336 26.9461L26.7657 42.4317C25.2791 43.6082 26.111 46 28.0069 46H31.0284V66C31.0284 68.2091 32.8193 70 35.0284 70H63.0774C65.2865 70 67.0774 68.2091 67.0774 66V46Z"/>
</mask>
<path fill-rule="evenodd" clip-rule="evenodd" d="M67.0774 46H69.9942C71.8992 46 72.7255 43.589 71.221 42.4205L51.2695 26.9237C49.8152 25.7941 47.7776 25.8034 46.3336 26.9461L26.7657 42.4317C25.2791 43.6082 26.111 46 28.0069 46H31.0284V66C31.0284 68.2091 32.8193 70 35.0284 70H63.0774C65.2865 70 67.0774 68.2091 67.0774 66V46Z" fill="#CCFF6F"/>
<path d="M67.0774 46V45H66.0774V46H67.0774ZM71.221 42.4205L71.8345 41.6307L71.8345 41.6307L71.221 42.4205ZM51.2695 26.9237L50.6561 27.7135V27.7135L51.2695 26.9237ZM46.3336 26.9461L46.9542 27.7303V27.7303L46.3336 26.9461ZM26.7657 42.4317L26.1452 41.6475L26.7657 42.4317ZM31.0284 46H32.0284V45H31.0284V46ZM69.9942 45H67.0774V47H69.9942V45ZM70.6076 43.2102C71.3598 43.7945 70.9467 45 69.9942 45V47C72.8516 47 74.0912 43.3836 71.8345 41.6307L70.6076 43.2102ZM50.6561 27.7135L70.6076 43.2102L71.8345 41.6307L51.883 26.134L50.6561 27.7135ZM46.9542 27.7303C48.0372 26.8732 49.5654 26.8663 50.6561 27.7135L51.883 26.134C50.0651 24.722 47.5181 24.7335 45.713 26.162L46.9542 27.7303ZM27.3863 43.2158L46.9542 27.7303L45.713 26.162L26.1452 41.6475L27.3863 43.2158ZM28.0069 45C27.0589 45 26.643 43.8041 27.3863 43.2158L26.1452 41.6475C23.9152 43.4123 25.1631 47 28.0069 47V45ZM31.0284 45H28.0069V47H31.0284V45ZM32.0284 66V46H30.0284V66H32.0284ZM35.0284 69C33.3716 69 32.0284 67.6568 32.0284 66H30.0284C30.0284 68.7614 32.267 71 35.0284 71V69ZM63.0774 69H35.0284V71H63.0774V69ZM66.0774 66C66.0774 67.6568 64.7342 69 63.0774 69V71C65.8388 71 68.0774 68.7614 68.0774 66H66.0774ZM66.0774 46V66H68.0774V46H66.0774Z" fill="#101010" mask="url(#path-6-inside-2_402_1250)"/>
<path d="M54.5622 69.5H43.5459V56C43.5459 54.067 45.1129 52.5 47.0459 52.5H49.6215H51.0622C52.9952 52.5 54.5622 54.067 54.5622 56V69.5Z" fill="#FF01C4" stroke="#101010"/>
</svg>
