<svg xmlns="http://www.w3.org/2000/svg" width="430" height="430" fill="none" viewBox="0 0 430 430"><g stroke-linecap="round" stroke-linejoin="round" stroke-miterlimit="10" stroke-width="18"><path stroke="#121331" d="M334.7 348.5H94.9v27h239.8zm0-293.5H94.9v27h239.8z"/><path stroke="#08a88a" d="M285.7 108.6H144v213.2h141.7zm-70.8 0v213.2m70.8-71.5H144m141.7-70.9H144"/><path stroke="#121331" d="M118.4 348.5V82h192.9v266.5M118.4 82H39v266.5h79.4z"/><path stroke="#121331" d="M390.7 82h-79.4v266.5h79.4z"/><path stroke="#08a88a" d="M92.7 139.9H64.8m27.9 37.7H64.8m27.9 37.6H64.8m27.9 37.6H64.8m27.9 37.7H64.8M365 139.9h-28m28 37.7h-28m28 37.6h-28m28 37.6h-28m28 37.7h-28"/></g></svg>