<svg width="96" height="94" viewBox="0 0 96 94" fill="none" xmlns="http://www.w3.org/2000/svg">
<path d="M27.498 68.0476C27.498 57.8041 35.8021 49.5 46.0457 49.5H47.9504C58.194 49.5 66.498 57.8041 66.498 68.0476C66.498 68.2975 66.2955 68.5 66.0457 68.5H27.9504C27.7006 68.5 27.498 68.2975 27.498 68.0476Z" fill="#101010" stroke="#101010"/>
<path d="M29.498 66.0476C29.498 55.8041 37.8021 47.5 48.0457 47.5H49.9504C60.194 47.5 68.498 55.8041 68.498 66.0476C68.498 66.2975 68.2955 66.5 68.0457 66.5H29.9504C29.7006 66.5 29.498 66.2975 29.498 66.0476Z" fill="#FAFF0A" stroke="#101010"/>
<path d="M37.498 32.7143C37.498 29.8345 39.8326 27.5 42.7123 27.5H51.2838C54.1635 27.5 56.498 29.8345 56.498 32.7143V37C56.498 42.2467 52.2448 46.5 46.998 46.5C41.7513 46.5 37.498 42.2467 37.498 37V32.7143Z" fill="#101010" stroke="#101010"/>
<path d="M39.498 30.7143C39.498 27.8345 41.8326 25.5 44.7123 25.5H53.2838C56.1635 25.5 58.498 27.8345 58.498 30.7143V35C58.498 40.2467 54.2448 44.5 48.998 44.5C43.7513 44.5 39.498 40.2467 39.498 35V30.7143Z" fill="#FAFF0A" stroke="#101010"/>
<path d="M56.7954 27.9234C55.1741 29.106 52.5043 30.1353 49.1729 29.0313C48.1177 28.5953 46.4874 28.2552 45.0773 28.7676C44.3519 29.0311 43.694 29.5183 43.2244 30.3087C42.7595 31.0914 42.498 32.139 42.498 33.5C42.498 34.1955 42.4352 34.6107 42.3552 34.8301C42.3497 34.8451 42.3444 34.8584 42.3394 34.8701C42.3324 34.8656 42.3249 34.8607 42.3169 34.8552C42.2412 34.8034 42.1457 34.7203 42.0316 34.5991C41.8031 34.3564 41.54 34.0041 41.2539 33.5663C39.3325 30.6258 39.8785 26.653 42.8324 25.0881C46.3763 23.2107 51.2909 22.5715 56.663 26.2418C57.3261 26.6948 57.3384 27.5273 56.7954 27.9234Z" fill="#FF01C4" stroke="#101010"/>
</svg>
