<svg width="96" height="96" viewBox="0 0 96 96" fill="none" xmlns="http://www.w3.org/2000/svg">
<mask id="path-2-inside-1_402_1251" fill="white">
<path fill-rule="evenodd" clip-rule="evenodd" d="M55.2231 32.1978C60.4348 38.4088 60.1212 47.4174 54.805 53.2485L57.1096 55.995C58.9583 55.4509 61.0364 56.0074 62.3544 57.5781L67.4967 63.7064C69.2717 65.8218 68.9957 68.9756 66.8804 70.7506C64.765 72.5256 61.6112 72.2497 59.8362 70.1343L54.6939 64.006C53.376 62.4354 53.1887 60.2924 54.0455 58.5662L51.7646 55.848C45.0736 60.2644 35.9872 59.0565 30.7097 52.767C25.0297 45.9978 25.9126 35.9057 32.6818 30.2257C39.451 24.5456 49.5431 25.4286 55.2231 32.1978Z"/>
</mask>
<path fill-rule="evenodd" clip-rule="evenodd" d="M55.2231 32.1978C60.4348 38.4088 60.1212 47.4174 54.805 53.2485L57.1096 55.995C58.9583 55.4509 61.0364 56.0074 62.3544 57.5781L67.4967 63.7064C69.2717 65.8218 68.9957 68.9756 66.8804 70.7506C64.765 72.5256 61.6112 72.2497 59.8362 70.1343L54.6939 64.006C53.376 62.4354 53.1887 60.2924 54.0455 58.5662L51.7646 55.848C45.0736 60.2644 35.9872 59.0565 30.7097 52.767C25.0297 45.9978 25.9126 35.9057 32.6818 30.2257C39.451 24.5456 49.5431 25.4286 55.2231 32.1978Z" fill="#101010"/>
<path d="M54.805 53.2485L54.066 52.5747L53.4766 53.2212L54.0389 53.8913L54.805 53.2485ZM57.1096 55.995L56.3435 56.6378L56.7642 57.1391L57.3919 56.9543L57.1096 55.995ZM62.3544 57.5781L63.1204 56.9353L62.3544 57.5781ZM67.4967 63.7064L66.7306 64.3492L67.4967 63.7064ZM59.8362 70.1343L60.6023 69.4915L59.8362 70.1343ZM54.6939 64.006L53.9279 64.6488L54.6939 64.006ZM54.0455 58.5662L54.9412 59.0108L55.2321 58.4247L54.8115 57.9234L54.0455 58.5662ZM51.7646 55.848L52.5306 55.2052L51.9577 54.5224L51.2137 55.0134L51.7646 55.848ZM55.5439 53.9222C61.1931 47.726 61.5271 38.1549 55.9892 31.555L54.4571 32.8405C59.3425 38.6628 59.0493 47.1089 54.066 52.5747L55.5439 53.9222ZM57.8756 55.3522L55.571 52.6057L54.0389 53.8913L56.3435 56.6378L57.8756 55.3522ZM57.3919 56.9543C58.8731 56.5184 60.5349 56.9655 61.5883 58.2209L63.1204 56.9353C61.5379 55.0493 59.0435 54.3834 56.8272 55.0357L57.3919 56.9543ZM61.5883 58.2209L66.7306 64.3492L68.2627 63.0637L63.1204 56.9353L61.5883 58.2209ZM66.7306 64.3492C68.1506 66.0415 67.9299 68.5646 66.2376 69.9846L67.5232 71.5167C70.0616 69.3866 70.3927 65.6021 68.2627 63.0637L66.7306 64.3492ZM66.2376 69.9846C64.5453 71.4046 62.0223 71.1838 60.6023 69.4915L59.0702 70.7771C61.2002 73.3156 64.9847 73.6467 67.5232 71.5167L66.2376 69.9846ZM60.6023 69.4915L55.46 63.3632L53.9279 64.6488L59.0702 70.7771L60.6023 69.4915ZM55.46 63.3632C54.4066 62.1079 54.2548 60.3938 54.9412 59.0108L53.1497 58.1217C52.1227 60.191 52.3454 62.7629 53.9279 64.6488L55.46 63.3632ZM50.9986 56.4908L53.2794 59.209L54.8115 57.9234L52.5306 55.2052L50.9986 56.4908ZM29.9437 53.4098C35.5515 60.0929 45.2054 61.3756 52.3155 56.6826L51.2137 55.0134C44.9418 59.1532 36.423 58.02 31.4758 52.1242L29.9437 53.4098ZM32.039 29.4596C24.8468 35.4946 23.9086 46.2175 29.9437 53.4098L31.4758 52.1242C26.1507 45.7781 26.9785 36.3167 33.3246 30.9917L32.039 29.4596ZM55.9892 31.555C49.9541 24.3627 39.2313 23.4246 32.039 29.4596L33.3246 30.9917C39.6707 25.6667 49.1321 26.4944 54.4571 32.8405L55.9892 31.555Z" fill="#101010" mask="url(#path-2-inside-1_402_1251)"/>
<rect x="50.319" y="49.0982" width="3" height="10" transform="rotate(-40 50.319 49.0982)" stroke="#101010"/>
<circle cx="44.5592" cy="40.2774" r="15.5" transform="rotate(-40 44.5592 40.2774)" fill="#FF01C4" stroke="#101010"/>
<circle cx="44.979" cy="40.3634" r="11.5" transform="rotate(-40 44.979 40.3634)" fill="#3CF2FE" stroke="#101010"/>
<circle cx="47.9629" cy="36.0995" r="3" transform="rotate(-40 47.9629 36.0995)" fill="white"/>
<rect x="53.8059" y="57.9211" width="9" height="17" rx="4.5" transform="rotate(-40 53.8059 57.9211)" fill="#FF01C4" stroke="#101010"/>
</svg>
