<svg width="96" height="96" viewBox="0 0 96 96" fill="none" xmlns="http://www.w3.org/2000/svg">
<mask id="path-2-inside-1_402_1296" fill="white">
<path fill-rule="evenodd" clip-rule="evenodd" d="M34.6075 45.7548C33.7619 47.4894 33.8021 49.5248 34.7157 51.2246L44.6226 69.6576C45.6684 71.6035 48.0937 72.3332 50.0396 71.2873L65.0139 63.2394C66.9598 62.1935 67.6894 59.7682 66.6436 57.8223L56.7367 39.3893C55.8232 37.6896 54.1478 36.5329 52.2346 36.2811L42.8659 35.048C41.1604 34.8236 39.5023 35.7147 38.7485 37.261L34.6075 45.7548ZM44.5 46C46.433 46 48 44.433 48 42.5C48 40.567 46.433 39 44.5 39C42.567 39 41 40.567 41 42.5C41 44.433 42.567 46 44.5 46Z"/>
</mask>
<path fill-rule="evenodd" clip-rule="evenodd" d="M34.6075 45.7548C33.7619 47.4894 33.8021 49.5248 34.7157 51.2246L44.6226 69.6576C45.6684 71.6035 48.0937 72.3332 50.0396 71.2873L65.0139 63.2394C66.9598 62.1935 67.6894 59.7682 66.6436 57.8223L56.7367 39.3893C55.8232 37.6896 54.1478 36.5329 52.2346 36.2811L42.8659 35.048C41.1604 34.8236 39.5023 35.7147 38.7485 37.261L34.6075 45.7548ZM44.5 46C46.433 46 48 44.433 48 42.5C48 40.567 46.433 39 44.5 39C42.567 39 41 40.567 41 42.5C41 44.433 42.567 46 44.5 46Z" fill="#101010"/>
<path d="M34.7157 51.2246L33.8348 51.698H33.8348L34.7157 51.2246ZM34.6075 45.7548L35.5064 46.1931L34.6075 45.7548ZM44.6226 69.6576L43.7417 70.131L44.6226 69.6576ZM50.0396 71.2873L49.5662 70.4065H49.5662L50.0396 71.2873ZM65.0139 63.2394L64.5405 62.3585L65.0139 63.2394ZM66.6436 57.8223L67.5245 57.3489L66.6436 57.8223ZM56.7367 39.3893L55.8559 39.8627V39.8627L56.7367 39.3893ZM52.2346 36.2811L52.3651 35.2897L52.2346 36.2811ZM42.8659 35.048L42.9964 34.0566L42.8659 35.048ZM38.7485 37.261L39.6473 37.6992L38.7485 37.261ZM35.5965 50.7512C34.8352 49.3347 34.8017 47.6385 35.5064 46.1931L33.7086 45.3166C32.7221 47.3403 32.769 49.715 33.8348 51.698L35.5965 50.7512ZM45.5034 69.1842L35.5965 50.7512L33.8348 51.698L43.7417 70.131L45.5034 69.1842ZM49.5662 70.4065C48.1067 71.1909 46.2878 70.6436 45.5034 69.1842L43.7417 70.131C45.049 72.5634 48.0806 73.4755 50.513 72.1682L49.5662 70.4065ZM64.5405 62.3585L49.5662 70.4065L50.513 72.1682L65.4873 64.1202L64.5405 62.3585ZM65.7628 58.2958C66.5471 59.7552 65.9999 61.5741 64.5405 62.3585L65.4873 64.1202C67.9197 62.8129 68.8317 59.7813 67.5245 57.3489L65.7628 58.2958ZM55.8559 39.8627L65.7628 58.2958L67.5245 57.3489L57.6176 38.9159L55.8559 39.8627ZM52.1041 37.2726C53.6985 37.4824 55.0946 38.4463 55.8559 39.8627L57.6176 38.9159C56.5518 36.9328 54.5972 35.5834 52.3651 35.2897L52.1041 37.2726ZM42.7354 36.0395L52.1041 37.2726L52.3651 35.2897L42.9964 34.0566L42.7354 36.0395ZM39.6473 37.6992C40.2127 36.5395 41.4562 35.8711 42.7354 36.0395L42.9964 34.0566C40.8645 33.776 38.7919 34.8899 37.8496 36.8227L39.6473 37.6992ZM35.5064 46.1931L39.6473 37.6992L37.8496 36.8227L33.7086 45.3166L35.5064 46.1931ZM47 42.5C47 43.8807 45.8807 45 44.5 45V47C46.9853 47 49 44.9853 49 42.5H47ZM44.5 40C45.8807 40 47 41.1193 47 42.5H49C49 40.0147 46.9853 38 44.5 38V40ZM42 42.5C42 41.1193 43.1193 40 44.5 40V38C42.0147 38 40 40.0147 40 42.5H42ZM44.5 45C43.1193 45 42 43.8807 42 42.5H40C40 44.9853 42.0147 47 44.5 47V45Z" fill="#101010" mask="url(#path-2-inside-1_402_1296)"/>
<path d="M42.5282 41.0935C42.404 41.417 42.2473 41.7345 41.9856 42.1967C41.666 42.7613 40.9011 42.9151 40.3651 42.5067L36.2178 39.3469C33.6646 37.4016 33.0629 33.807 34.8434 31.1363L36.6315 28.4542C36.9847 27.9243 37.633 27.6736 38.2509 27.8281C39.2327 28.0736 39.6983 29.1977 39.1776 30.0655L37.5804 32.7275C36.6079 34.3483 37.1576 36.4517 38.7987 37.3894L41.6505 39.019C42.4328 39.4661 42.8118 40.3551 42.5282 41.0935Z" fill="#101010" stroke="#101010"/>
<mask id="path-5-inside-2_402_1296" fill="white">
<path fill-rule="evenodd" clip-rule="evenodd" d="M36.6075 43.7548C35.7619 45.4894 35.8021 47.5248 36.7157 49.2246L46.6226 67.6576C47.6684 69.6035 50.0937 70.3332 52.0396 69.2873L67.0139 61.2394C68.9598 60.1935 69.6894 57.7682 68.6436 55.8223L58.7367 37.3893C57.8232 35.6896 56.1478 34.5329 54.2346 34.2811L44.8659 33.048C43.1604 32.8236 41.5023 33.7147 40.7485 35.261L36.6075 43.7548ZM46.5 44C48.433 44 50 42.433 50 40.5C50 38.567 48.433 37 46.5 37C44.567 37 43 38.567 43 40.5C43 42.433 44.567 44 46.5 44Z"/>
</mask>
<path fill-rule="evenodd" clip-rule="evenodd" d="M36.6075 43.7548C35.7619 45.4894 35.8021 47.5248 36.7157 49.2246L46.6226 67.6576C47.6684 69.6035 50.0937 70.3332 52.0396 69.2873L67.0139 61.2394C68.9598 60.1935 69.6894 57.7682 68.6436 55.8223L58.7367 37.3893C57.8232 35.6896 56.1478 34.5329 54.2346 34.2811L44.8659 33.048C43.1604 32.8236 41.5023 33.7147 40.7485 35.261L36.6075 43.7548ZM46.5 44C48.433 44 50 42.433 50 40.5C50 38.567 48.433 37 46.5 37C44.567 37 43 38.567 43 40.5C43 42.433 44.567 44 46.5 44Z" fill="#FF6610"/>
<path d="M36.7157 49.2246L35.8348 49.698H35.8348L36.7157 49.2246ZM36.6075 43.7548L37.5064 44.1931L36.6075 43.7548ZM46.6226 67.6576L45.7417 68.131L46.6226 67.6576ZM52.0396 69.2873L51.5662 68.4065H51.5662L52.0396 69.2873ZM67.0139 61.2394L66.5405 60.3585L67.0139 61.2394ZM68.6436 55.8223L69.5245 55.3489L68.6436 55.8223ZM58.7367 37.3893L57.8559 37.8627V37.8627L58.7367 37.3893ZM54.2346 34.2811L54.3651 33.2897L54.2346 34.2811ZM44.8659 33.048L44.9964 32.0566L44.8659 33.048ZM40.7485 35.261L41.6473 35.6992L40.7485 35.261ZM37.5965 48.7512C36.8352 47.3347 36.8017 45.6385 37.5064 44.1931L35.7086 43.3166C34.7221 45.3403 34.769 47.715 35.8348 49.698L37.5965 48.7512ZM47.5034 67.1842L37.5965 48.7512L35.8348 49.698L45.7417 68.131L47.5034 67.1842ZM51.5662 68.4065C50.1067 69.1909 48.2878 68.6436 47.5034 67.1842L45.7417 68.131C47.049 70.5634 50.0806 71.4755 52.513 70.1682L51.5662 68.4065ZM66.5405 60.3585L51.5662 68.4065L52.513 70.1682L67.4873 62.1202L66.5405 60.3585ZM67.7628 56.2958C68.5471 57.7552 67.9999 59.5741 66.5405 60.3585L67.4873 62.1202C69.9197 60.8129 70.8317 57.7813 69.5245 55.3489L67.7628 56.2958ZM57.8559 37.8627L67.7628 56.2958L69.5245 55.3489L59.6176 36.9159L57.8559 37.8627ZM54.1041 35.2726C55.6985 35.4824 57.0946 36.4463 57.8559 37.8627L59.6176 36.9159C58.5518 34.9328 56.5972 33.5834 54.3651 33.2897L54.1041 35.2726ZM44.7354 34.0395L54.1041 35.2726L54.3651 33.2897L44.9964 32.0566L44.7354 34.0395ZM41.6473 35.6992C42.2127 34.5395 43.4562 33.8711 44.7354 34.0395L44.9964 32.0566C42.8645 31.776 40.7919 32.8899 39.8496 34.8227L41.6473 35.6992ZM37.5064 44.1931L41.6473 35.6992L39.8496 34.8227L35.7086 43.3166L37.5064 44.1931ZM49 40.5C49 41.8807 47.8807 43 46.5 43V45C48.9853 45 51 42.9853 51 40.5H49ZM46.5 38C47.8807 38 49 39.1193 49 40.5H51C51 38.0147 48.9853 36 46.5 36V38ZM44 40.5C44 39.1193 45.1193 38 46.5 38V36C44.0147 36 42 38.0147 42 40.5H44ZM46.5 43C45.1193 43 44 41.8807 44 40.5H42C42 42.9853 44.0147 45 46.5 45V43Z" fill="#101010" mask="url(#path-5-inside-2_402_1296)"/>
<path d="M44.5282 39.0935C44.404 39.417 44.2473 39.7345 43.9856 40.1967C43.666 40.7613 42.9011 40.9151 42.3651 40.5067L38.2178 37.3469C35.6646 35.4016 35.0629 31.807 36.8434 29.1363L38.6315 26.4542C38.9847 25.9243 39.633 25.6736 40.2509 25.8281C41.2327 26.0736 41.6983 27.1977 41.1776 28.0655L39.5804 30.7275C38.6079 32.3483 39.1576 34.4517 40.7987 35.3894L43.6505 37.019C44.4328 37.4661 44.8118 38.3551 44.5282 39.0935Z" fill="#FAFF0A" stroke="#101010"/>
</svg>
