<svg width="96" height="94" viewBox="0 0 96 94" fill="none" xmlns="http://www.w3.org/2000/svg">
<path d="M37.1514 63.4819C37.1514 55.071 43.9697 48.2527 52.3806 48.2527H53.9535C62.3644 48.2527 69.1827 55.071 69.1827 63.4819C69.1827 63.6401 69.0545 63.7684 68.8963 63.7684H37.4378C37.2796 63.7684 37.1514 63.6401 37.1514 63.4819Z" fill="#CCFF6F" stroke="#101010"/>
<path d="M45.4092 37.8433C45.4092 33.5588 48.8825 30.0854 53.167 30.0854C57.4516 30.0854 60.9249 33.5588 60.9249 37.8433C60.9249 42.1278 57.4516 45.6011 53.167 45.6011C48.8825 45.6011 45.4092 42.1278 45.4092 37.8433Z" fill="#CCFF6F" stroke="#101010"/>
<path d="M27.5 65.1335C27.5 56.7226 34.3184 49.9043 42.7292 49.9043H44.3021C52.713 49.9043 59.5314 56.7226 59.5314 65.1335C59.5314 65.2917 59.4031 65.42 59.2449 65.42H27.7865C27.6283 65.42 27.5 65.2917 27.5 65.1335Z" fill="#101010" stroke="#101010"/>
<path d="M29.1516 63.4819C29.1516 55.071 35.9699 48.2527 44.3808 48.2527H45.9537C54.3646 48.2527 61.1829 55.071 61.1829 63.4819C61.1829 63.6401 61.0547 63.7684 60.8964 63.7684H29.438C29.2798 63.7684 29.1516 63.6401 29.1516 63.4819Z" fill="#3CF2FE" stroke="#101010"/>
<path d="M35.7578 35.9558C35.7578 33.6259 37.6466 31.7371 39.9766 31.7371H47.0547C49.3847 31.7371 51.2735 33.6259 51.2735 35.9558V39.4949C51.2735 43.7794 47.8002 47.2527 43.5157 47.2527C39.2311 47.2527 35.7578 43.7794 35.7578 39.4949V35.9558Z" fill="#101010" stroke="#101010"/>
<path d="M37.4094 34.3042C37.4094 31.9743 39.2982 30.0854 41.6282 30.0854H48.7063C51.0363 30.0854 52.9251 31.9743 52.9251 34.3042V37.8433C52.9251 42.1278 49.4518 45.6011 45.1673 45.6011C40.8827 45.6011 37.4094 42.1278 37.4094 37.8433V34.3042Z" fill="#CCFF6F" stroke="#101010"/>
<path d="M51.2956 32.109C49.9583 32.9909 47.8896 33.6759 45.342 32.8327C44.4609 32.4692 43.092 32.1816 41.8998 32.6148C41.2833 32.8388 40.7233 33.2536 40.3246 33.9248C39.9304 34.5883 39.7125 35.4701 39.7125 36.6046C39.7125 37.0401 39.6826 37.3417 39.638 37.5389C39.6335 37.559 39.6289 37.5773 39.6245 37.5939C39.5712 37.5485 39.5055 37.4848 39.4277 37.3978C37.1526 34.8544 37.9487 30.5934 41.0277 29.3037C43.7644 28.1575 47.3131 27.98 51.175 30.5007C51.4996 30.7125 51.6692 31.0335 51.6889 31.3352C51.7081 31.6282 51.5893 31.9154 51.2956 32.109Z" fill="#FF6610" stroke="#101010"/>
</svg>
